<svg viewBox="0 0 46 46" fill="none" xmlns="http://www.w3.org/2000/svg">
<path d="M34.5008 17.25C34.5008 7.72394 26.7773 0 17.251 0C7.72495 0 0.00100708 7.72394 0.00100708 17.25C0.00100708 26.7761 7.72495 34.4996 17.251 34.4996C26.7773 34.4996 34.5008 26.7761 34.5008 17.25ZM17.251 30.187C10.1168 30.187 4.31363 24.3843 4.31363 17.2501C4.31363 10.1159 10.1168 4.31272 17.251 4.31272C24.385 4.31272 30.1887 10.1159 30.1887 17.2501C30.1887 24.3843 24.385 30.187 17.251 30.187Z" fill="#FFDD00"/>
<path d="M44.7362 38.6389L34.1831 28.0849C32.6107 30.5304 30.5297 32.6103 28.0843 34.1828L38.6382 44.7367C40.3231 46.4212 43.0548 46.4212 44.7361 44.7367C46.421 43.055 46.421 40.3232 44.7362 38.6389Z" fill="#FFDD00"/>
</svg>
