<svg viewBox="0 0 16 16" fill="none" xmlns="http://www.w3.org/2000/svg">
<path d="M15.6413 12.6447L13.1703 10.1734C12.6782 9.68326 11.8631 9.69815 11.3538 10.2076L10.1089 11.4522C10.0303 11.4089 9.94888 11.3636 9.86329 11.3156C9.07717 10.88 8.00122 10.283 6.86901 9.14995C5.73345 8.01452 5.13588 6.93692 4.69896 6.15029C4.65286 6.06695 4.60868 5.9866 4.56506 5.9103L5.40056 5.07605L5.81132 4.66478C6.32141 4.15455 6.33547 3.33974 5.84446 2.84813L3.37351 0.376627C2.88249 -0.114299 2.06709 -0.099406 1.55699 0.410826L0.860594 1.11122L0.879624 1.13011C0.646113 1.42807 0.450983 1.77172 0.305774 2.1423C0.171919 2.49505 0.0885807 2.83167 0.0504742 3.16897C-0.275798 5.87385 0.96025 8.3459 4.31473 11.7004C8.95163 16.337 12.6884 15.9867 12.8496 15.9696C13.2007 15.9277 13.5371 15.8438 13.8791 15.711C14.2465 15.5675 14.5899 15.3726 14.8877 15.1396L14.9029 15.1531L15.6084 14.4623C16.1174 13.9522 16.1321 13.1371 15.6413 12.6447Z" fill="currentColor"/>
</svg>
